# xmcd
#
# Track frame offsets:
#	150
#	13942
#	29299
#	43558
#	55963
#	77932
#	91409
#	108441
#	122808
#	138053
#	150027
#
# Disc length: 2093 seconds
#
# Revision: 0
# Processed by: cddbd v1.4PL0 Copyright (c) Steve Scherf et al.
# Submitted via: EasyCDDAExtractor 4.5.0.2
#
DISCID=81082b0b
DTITLE=Scott Hoyt - Lay Your Love On Me
DYEAR=1900
DGENRE=Country
TTITLE0=Wild, Wild Women
TTITLE1=I'm Still Not Over You
TTITLE2=Don't Lead Me On
TTITLE3=Love Is Love
TTITLE4=Lies
TTITLE5=Faithless One
TTITLE6=Lay Your Love On Me
TTITLE7=Achin' Arms
TTITLE8=Autumn Brings You Back To Me
TTITLE9=You're The One
TTITLE10=See The Light
EXTD=
EXTT0=
EXTT1=
EXTT2=
EXTT3=
EXTT4=
EXTT5=
EXTT6=
EXTT7=
EXTT8=
EXTT9=
EXTT10=
PLAYORDER=
